# Blender v2.77 (sub 0) OBJ File: ''
# www.blender.org
mtllib IceHex.mtl
o PlainHex_Plane
v 0.000000 0.000000 -1.232961
v -0.866025 0.000000 -0.732961
v -0.866025 0.000000 0.267039
v 0.000000 0.000000 0.767039
v 0.866025 0.000000 0.267039
v 0.866025 0.000000 -0.732961
v -0.866025 0.500000 -0.732961
v 0.000000 0.500000 -1.232961
v -0.866025 0.500000 0.267039
v 0.000000 0.500000 0.767039
v 0.866025 0.500000 0.267039
v 0.866025 0.500000 -0.732961
vt 0.4369 0.4286
vt 0.2185 0.5714
vt 0.0000 0.4286
vt 0.0000 0.1429
vt 0.2185 0.0000
vt 0.4369 0.1429
vt 0.6554 0.5714
vt 0.4369 0.4286
vt 0.4369 0.1429
vt 0.6554 0.0000
vt 0.8739 0.1429
vt 0.8739 0.4286
vt 0.2523 0.5714
vt 0.2523 0.8571
vt 0.1261 0.8571
vt 0.1261 0.5714
vt 1.0000 0.0000
vt 1.0000 0.1429
vt 0.8739 0.1429
vt 0.8739 0.0000
vt 0.1261 0.5714
vt 0.1261 0.7143
vt 0.0000 0.7143
vt 0.0000 0.5714
vt 1.0000 0.4286
vt 1.0000 0.5714
vt 0.8739 0.5714
vt 0.8739 0.4286
vt 0.1261 1.0000
vt 0.0000 1.0000
vn 0.0000 1.0000 0.0000
vn 0.0000 -1.0000 0.0000
vn -1.0000 0.0000 0.0000
vn 1.0000 0.0000 0.0000
vn -0.5000 0.0000 0.8660
vn -0.5000 0.0000 -0.8660
vn 0.5000 0.0000 -0.8660
vn 0.5000 0.0000 0.8660
usemtl IceTex
s off
f 7/1/1 9/2/1 10/3/1 11/4/1 12/5/1 8/6/1
usemtl IceTex_WaterTex
f 2/7/2 1/8/2 6/9/2 5/10/2 4/11/2 3/12/2
f 2/13/3 3/14/3 9/15/3 7/16/3
f 5/17/4 6/18/4 12/19/4 11/20/4
f 3/21/5 4/22/5 10/23/5 9/24/5
f 1/25/6 2/26/6 7/27/6 8/28/6
f 6/18/7 1/25/7 8/28/7 12/19/7
f 4/22/8 5/29/8 11/30/8 10/23/8
